<?xml version="1.0" encoding="UTF-8" standalone="no"?>
<!DOCTYPE svg PUBLIC "-//W3C//DTD SVG 1.1//EN" "http://www.w3.org/Graphics/SVG/1.1/DTD/svg11.dtd">
<svg xmlns="http://www.w3.org/2000/svg" version="1.1" viewBox="0.00 0.00 512.00 512.00">
<path fill="#000000" d="
  M 512.00 92.86
  L 512.00 95.53
  Q 452.68 256.60 393.32 417.68
  Q 391.84 421.67 390.38 423.41
  C 386.90 427.56 382.24 426.88 377.94 424.08
  Q 328.13 391.67 281.17 361.15
  A 0.92 0.92 0.0 0 0 280.15 361.15
  Q 233.55 392.08 185.19 424.47
  Q 182.33 426.39 179.97 426.40
  C 175.38 426.41 171.35 423.19 171.23 418.46
  Q 171.18 416.51 170.82 414.55
  Q 158.58 346.67 146.38 279.01
  A 0.87 0.86 9.3 0 0 145.93 278.39
  Q 75.16 241.07 4.31 203.69
  Q 1.03 201.96 0.00 197.38
  L 0.00 195.20
  Q 1.38 189.06 7.13 187.87
  Q 252.38 137.18 497.63 86.48
  Q 503.44 85.28 505.89 85.94
  Q 510.56 87.19 512.00 92.86
  Z
  M 441.48 116.17
  Q 443.66 115.06 441.27 115.56
  L 34.28 199.65
  Q 33.50 199.81 34.21 200.19
  L 153.56 263.16
  A 1.02 1.01 45.3 0 0 154.50 263.17
  L 441.48 116.17
  Z
  M 228.99 306.39
  A 0.31 0.31 0.0 0 0 229.01 306.90
  L 379.51 404.73
  A 0.31 0.31 0.0 0 0 379.97 404.58
  L 485.33 118.63
  A 0.31 0.31 0.0 0 0 484.86 118.27
  L 228.99 306.39
  Z
  M 411.80 150.48
  C 329.13 192.87 246.40 235.16 163.75 277.59
  Q 163.50 277.72 163.55 278.00
  L 181.87 379.72
  Q 182.07 380.80 182.39 379.75
  Q 193.84 342.47 205.30 305.24
  Q 206.34 301.88 208.67 300.16
  Q 310.19 225.49 411.96 150.75
  Q 412.08 150.67 412.00 150.54
  L 412.00 150.54
  Q 411.93 150.42 411.80 150.48
  Z
  M 264.60 350.97
  A 0.33 0.33 0.0 0 0 264.60 350.42
  L 218.90 320.68
  A 0.33 0.33 0.0 0 0 218.40 320.86
  L 195.55 396.30
  A 0.33 0.33 0.0 0 0 196.05 396.67
  L 264.60 350.97
  Z"
/>
</svg>
